<svg id="レイヤー_1" xmlns="http://www.w3.org/2000/svg" viewBox="2 270.9 400 70"><g fill="#5279E7"><path d="M116.7 275.7h11.8v23.1h25.1v-23.1h11.7v61.1h-11.7V310h-25.1v26.8h-11.8v-61.1zM232.7 274.9H244v16.7h6.7v9.6H244v35.6h-11.4v-35.6h-5.9v-9.6h5.9v-16.7zM308.2 291.7h11.1v5.6c2.5-2.1 4.8-3.6 6.8-4.4 2-.8 4.1-1.2 6.2-1.2 4.4 0 8.1 1.5 11.1 4.6 2.6 2.6 3.8 6.4 3.8 11.5v29.1h-11.1v-19.3c0-5.3-.2-8.7-.7-10.5-.5-1.7-1.3-3-2.4-3.9-1.2-.9-2.6-1.4-4.3-1.4-2.2 0-4.1.8-5.7 2.2-1.6 1.5-2.7 3.6-3.3 6.2-.3 1.4-.5 4.4-.5 8.9v17.7h-11.1v-45.1zM208.2 291.7v4.5c-3.8-2.8-8.5-4.5-13.5-4.5-12.5 0-22.6 10.1-22.6 22.6 0 12.5 10.1 22.6 22.6 22.6 5.1 0 9.8-1.7 13.5-4.5v4.5h11.3v-45.1h-11.3zm-13.5 35c-6.9 0-12.5-5.6-12.5-12.5s5.6-12.5 12.5-12.5 12.5 5.6 12.5 12.5c-.1 6.9-5.7 12.5-12.5 12.5zM390.7 291.7v4.5c-3.8-2.8-8.5-4.5-13.5-4.5-12.5 0-22.6 10.1-22.6 22.6 0 12.5 10.1 22.6 22.6 22.6 5.1 0 9.8-1.7 13.5-4.5v4.5H402v-45.1h-11.3zm-13.6 35c-6.9 0-12.5-5.6-12.5-12.5s5.6-12.5 12.5-12.5 12.5 5.6 12.5 12.5-5.6 12.5-12.5 12.5zM278.1 291.8c-6.4 0-11.7 2.2-15.9 6.5-4.2 4.3-6.3 9.7-6.3 16.3 0 6.4 2.1 11.7 6.3 15.9 4.2 4.2 9.7 6.4 16.4 6.4 4.3 0 8-1.3 11.2-2.8 3.1-1.5 7.4-6.4 9.2-10.9h-10.1c-2.9 2.8-6.4 4.2-10.4 4.2-3.4 0-6.1-.9-8.3-2.7-2.2-1.8-3.5-4.3-4-7.3h34.6v-2c0-7.1-2.1-12.8-6.4-17.1-4-4.4-9.5-6.5-16.3-6.5zm-11.4 17.1c1.2-2.6 2.5-4.4 4-5.5 2.3-1.7 4.9-2.5 7.9-2.5 2.8 0 5.2.7 7.3 2.2 2.1 1.5 3.5 3.4 4.2 5.7l-23.4.1z"/></g><g fill="#5279E7"><path d="M29.2 283.2c2.3.8 11.8 4.2 12.1 4.3.3-.1 9.9-3.5 12.1-4.3-2.3-.8-11.8-4.2-12.1-4.3-.3.1-9.9 3.5-12.1 4.3zM56.7 283.2c2.3.8 11.8 4.2 12.1 4.3.3-.1 9.9-3.5 12.1-4.3-2.3-.8-11.8-4.2-12.1-4.3-.3.1-9.8 3.5-12.1 4.3z"/></g><path fill="#C2D7FF" d="M43 293.6c2.3.8 11.8 4.2 12.1 4.3.3-.1 9.9-3.5 12.1-4.3-2.3-.8-11.8-4.2-12.1-4.3-.3.1-9.9 3.5-12.1 4.3z"/><path fill="#5279E7" d="M70 293.6c2.3.8 11.8 4.2 12.1 4.3.3-.1 9.9-3.5 12.1-4.3-2.3-.8-11.8-4.2-12.1-4.3-.3.1-9.9 3.5-12.1 4.3zM15.9 293.6c2.3.8 11.8 4.2 12.1 4.3.3-.1 9.9-3.5 12.1-4.3-2.3-.8-11.8-4.2-12.1-4.3-.3.1-9.9 3.5-12.1 4.3zM42.9 328.6c2.3.8 11.8 4.2 12.1 4.3.3-.1 9.9-3.5 12.1-4.3-2.3-.8-11.8-4.2-12.1-4.3-.2.1-9.8 3.5-12.1 4.3z"/><g fill="#C2D7FF"><path d="M42.5 314.8c2.3.8 11.8 4.2 12.1 4.3.3-.1 9.9-3.5 12.1-4.3-2.3-.8-11.8-4.2-12.1-4.3-.2.2-9.8 3.5-12.1 4.3zM70.4 314.8c2.3.8 11.8 4.2 12.1 4.3.3-.1 9.9-3.5 12.1-4.3-2.3-.8-11.8-4.2-12.1-4.3-.2.2-9.8 3.5-12.1 4.3zM15.4 314.8c2.3.8 11.8 4.2 12.1 4.3.3-.1 9.9-3.5 12.1-4.3-2.3-.8-11.8-4.2-12.1-4.3-.2.2-9.8 3.5-12.1 4.3z"/></g><g><path fill="#C2D7FF" d="M29.3 304.1c2.3.8 11.8 4.2 12.1 4.3.3-.1 9.9-3.5 12.1-4.3-2.3-.8-11.8-4.2-12.1-4.3-.2.1-9.8 3.5-12.1 4.3z"/><path fill="#5279E7" d="M56.9 304.1c2.3.8 11.8 4.2 12.1 4.3.3-.1 9.9-3.5 12.1-4.3-2.3-.8-11.8-4.2-12.1-4.3-.3.1-9.9 3.5-12.1 4.3z"/><path fill="#C2D7FF" d="M83.9 304.1c2.3.8 11.8 4.2 12.1 4.3.3-.1 9.9-3.5 12.1-4.3-2.3-.8-11.8-4.2-12.1-4.3-.3.1-9.9 3.5-12.1 4.3zM2 304.1c2.3.8 11.8 4.2 12.1 4.3.3-.1 9.9-3.5 12.1-4.3-2.3-.8-11.8-4.2-12.1-4.3-.3.1-9.8 3.5-12.1 4.3z"/></g></svg>